<svg xmlns="http://www.w3.org/2000/svg" viewBox="0 0 192 192">
  <!--
    The W from Source Serif 4 SemiBold, the same face as "Wesley Bard" in the header, so the tab icon and the
    masthead are one letterform. An outline, not <text>: a favicon has no webfont to fall back on.
    Generated by scripts/og/build-favicon.py; regenerate all three together.
  -->
  <rect width="192" height="192" rx="36" fill="#14130f"/>
  <g transform="translate(30.989 138.028) scale(0.12697 -0.12697)"><path d="M261 -2 67 664H211L351 110H348L375 256L500 664H590L744 108H742L772 261L882 664H951L755 -2H655L509 534H513L487 411L362 -2ZM13 606V664H313V606L194 598H129ZM400 606V664H699V606L586 598H519ZM782 606V664H1011V606L912 598H884Z" fill="#f6f4ef"/></g>
</svg>
